PathFileType	4	(X/Y/Z)	C:\Users\Basilio\Documents\Thesis Gigler\squatting_fais\c3dfiles\077\SLS_front_pre3\markers_experimental.trc
DataRate	CameraRate	NumFrames	NumMarkers	Units	OrigDataRate	OrigDataStartFrame	OrigNumFrames
200.000000	200.000000	4	60	mm	200.000000	916	1466
Frame#	Time	FHD			LBHD			RBHD			C7			T10			CLAV			LSHO			LUUPA			LMUPA			LDUPA			LLEP			LMEP			LRAD			LUL			LRFIN			RSHO			RUPA1			RMUPA			RDUPA			RLEP			RMEP			RUL			RUFIN			LASI			RASI			USACR			LSACR			RSACR			LTHI1			LTHI2			LTHI3			LTHI4			LLFC			LMFC			LTIB1			LTIB2			LTIB3			LTIB4			LLMAL			LHEE			LMT1			LMT2			LMT5			RTHI			RTHI2			RTHI3			RTHI4			RLFC			RMFC			RTIB1			RTIB2			RTIB3			RTIB4			RLMAL			RMMAL			RHEE			RMT1			RMT2			RMT5			RRAD			
		X1	Y1	Z1	X2	Y2	Z2	X3	Y3	Z3	X4	Y4	Z4	X5	Y5	Z5	X6	Y6	Z6	X7	Y7	Z7	X8	Y8	Z8	X9	Y9	Z9	X10	Y10	Z10	X11	Y11	Z11	X12	Y12	Z12	X13	Y13	Z13	X14	Y14	Z14	X15	Y15	Z15	X16	Y16	Z16	X17	Y17	Z17	X18	Y18	Z18	X19	Y19	Z19	X20	Y20	Z20	X21	Y21	Z21	X22	Y22	Z22	X23	Y23	Z23	X24	Y24	Z24	X25	Y25	Z25	X26	Y26	Z26	X27	Y27	Z27	X28	Y28	Z28	X29	Y29	Z29	X30	Y30	Z30	X31	Y31	Z31	X32	Y32	Z32	X33	Y33	Z33	X34	Y34	Z34	X35	Y35	Z35	X36	Y36	Z36	X37	Y37	Z37	X38	Y38	Z38	X39	Y39	Z39	X40	Y40	Z40	X41	Y41	Z41	X42	Y42	Z42	X43	Y43	Z43	X44	Y44	Z44	X45	Y45	Z45	X46	Y46	Z46	X47	Y47	Z47	X48	Y48	Z48	X49	Y49	Z49	X50	Y50	Z50	X51	Y51	Z51	X52	Y52	Z52	X53	Y53	Z53	X54	Y54	Z54	X55	Y55	Z55	X56	Y56	Z56	X57	Y57	Z57	X58	Y58	Z58	X59	Y59	Z59	X60	Y60	Z60	

917	4.58	-322.7325439453126	1736.49365234375	-1083.441162109375	-450.7903442382814	1616.632934570313	-1156.942749023438	-457.9003906250001	1608.546020507813	-1010.52587890625	-482.2416992187501	1474.427124023438	-1097.463989257813	-507.7187805175782	1152.066284179688	-1044.4921875	-317.6879577636719	1431.95361328125	-1082.307495117188	-329.4075622558594	1465.330444335938	-1254.805053710938	-155.7108306884766	1432.2275390625	-1345.670043945313	-131.9678192138672	1465.744384765625	-1317.337890625	-87.6369094848633	1437.476806640625	-1347.699340820313	-23.80293464660645	1453.466430664063	-1338.952026367188	-12.2426986694336	1385.850219726563	-1311.107421875	257.2158508300782	1513.992065429688	-1203.916625976563	265.2640686035157	1522.885009765625	-1282.769653320313	352.8157653808594	1549.44189453125	-1205.59423828125	-340.2698669433594	1477.511596679688	-925.3645629882815	-185.0127868652344	1454.71240234375	-814.098815917969	-160.3750762939453	1479.412231445313	-848.695251464844	-115.1389465332032	1458.739135742188	-813.5129394531252	-49.89336395263673	1467.981567382813	-822.320007324219	-41.28559875488282	1393.265747070313	-846.1589355468752	243.0974273681641	1516.959350585938	-853.389343261719	328.2790832519532	1525.985107421875	-935.1945800781252	-316.9162902832032	970.3151855468752	-1158.947998046875	-334.5069885253907	993.0386962890627	-886.7456054687502	-519.0938720703126	1029.748901367188	-1025.95556640625	-521.7720336914064	1001.18603515625	-1055.047119140625	-526.1778564453126	996.7585449218752	-1000.459777832031	-298.9288330078126	756.3167724609376	-1222.1162109375	-237.5638732910157	700.1421508789064	-1224.959228515625	-193.2343902587891	721.9515991210939	-1224.301635742188	-238.6324005126954	640.3518066406251	-1208.959594726563	-153.3533477783203	515.5506591796876	-1186.389892578125	-127.0106430053711	507.6585083007814	-1057.893920898438	-184.0713806152344	305.2160034179688	-1084.0419921875	-238.8767700195313	267.3687438964844	-1144.679931640625	-209.0418853759766	258.7334899902344	-1110.921264648438	-242.6653747558594	195.8524169921876	-1065.106811523438	-342.3527526855469	101.1907424926758	-1089.138061523438	-404.6927185058595	80.28136444091798	-1027.690673828125	-190.6248474121094	56.19697189331056	-1057.418701171875	-201.7922821044922	37.95101547241212	-1104.2578125	-308.0270385742188	122.6431503295899	-1008.757995605469	-117.0277786254883	802.5828247070315	-842.9736938476565	-52.21977615356447	821.205505371094	-850.0910644531252	-42.14545440673829	852.8693847656252	-859.2341918945315	7.691214084625246	766.8488769531251	-870.515808105469	61.55505752563478	732.5438232421876	-878.304626464844	74.42224884033205	749.6213989257814	-1006.145874023438	191.9498138427735	672.1763916015626	-914.359069824219	203.3399047851563	570.4105834960939	-886.9012451171877	233.9739990234376	596.0108642578126	-910.8997802734377	261.1122741699219	569.4824829101564	-955.9758911132815	340.8097534179688	389.8980102539064	-931.650573730469	340.9503479003907	419.5005187988282	-1019.337890625	321.0096435546876	316.4131774902344	-991.7857666015627	481.4969177246095	481.1047668457032	-991.9694824218752	482.0845031738282	475.9423828125001	-953.5585937500002	491.5372619628907	442.0859985351564	-910.776062011719	nan	nan	nan	
918	4.585	-322.5610961914063	1737.953002929688	-1083.35888671875	-450.5381164550782	1617.120361328125	-1157.029663085938	-457.7503662109376	1609.77978515625	-1010.841918945313	-482.090545654297	1475.563354492188	-1097.565795898438	-507.475799560547	1153.043334960938	-1044.515991210938	-317.4285278320313	1432.984741210938	-1082.35693359375	-329.7286987304688	1466.348876953125	-1254.93212890625	-155.9148254394532	1433.609130859375	-1345.765869140625	-131.4659118652344	1466.67236328125	-1317.105590820313	-87.02224731445314	1438.44287109375	-1347.634765625	-23.83567047119141	1454.59326171875	-1339.121215820313	-11.94388675689697	1386.932373046875	-1311.106323242188	257.5134582519532	1515.007690429688	-1204.00390625	265.6716613769532	1523.877685546875	-1282.905395507813	353.6163024902344	1551.042358398438	-1205.295654296875	-340.2462463378907	1478.546997070313	-925.3977661132815	-184.8262023925782	1455.872192382813	-814.1265869140627	-160.2484588623047	1480.636108398438	-848.826354980469	-115.0776977539063	1459.763427734375	-813.5884399414065	-49.81352615356447	1468.834106445313	-822.4282836914065	-41.20046615600587	1394.200073242188	-846.1832275390627	242.6016693115235	1517.341064453125	-854.120788574219	328.4772338867188	1527.08056640625	-935.2612915039065	-316.7299499511719	971.2687988281252	-1159.064086914063	-334.1825256347657	994.2415161132815	-886.9114379882815	-518.7836303710939	1030.69970703125	-1025.8818359375	-521.5593261718751	1002.150512695313	-1054.923950195313	-525.6771240234376	997.8152465820315	-1000.430908203125	-299.0048217773438	757.4533691406251	-1221.473266601563	-236.6498565673829	700.2388305664064	-1224.588623046875	-193.3800354003907	722.6940307617189	-1224.27490234375	-238.9937744140626	641.0550537109376	-1208.82763671875	-153.8897857666016	516.0680541992189	-1186.195434570313	-127.4779815673828	508.0174255371095	-1057.805053710938	-184.4115753173828	305.4538574218751	-1083.949096679688	-239.197982788086	267.5609130859376	-1144.669067382813	-209.2635498046876	259.0106506347657	-1110.996215820313	-242.7787017822266	196.0023040771485	-1065.124877929688	-342.4122314453126	101.2537307739258	-1089.149536132813	-404.7063903808595	80.26660156250001	-1027.692016601563	-190.6280364990235	56.06330490112306	-1057.361328125	-201.7525939941407	38.34745407104493	-1104.099731445313	-308.0415039062501	122.6894912719727	-1008.713684082031	-116.7298965454102	803.6934814453127	-842.8584594726565	-52.00202560424806	821.7180175781252	-850.004577636719	-41.8202247619629	853.5836181640627	-859.165954589844	7.931896686553957	767.4332275390626	-870.222839355469	61.76570892333986	733.0148315429689	-878.1343994140627	74.41920471191408	750.0873413085939	-1006.062194824219	192.0772552490235	672.5770874023439	-914.1734619140627	203.2661590576172	570.6239013671876	-886.6914062500002	234.0501251220704	596.2811279296876	-910.6921997070315	261.2884216308594	569.9358520507814	-955.7346801757815	340.9544067382813	390.4338989257814	-931.2451782226565	341.1959838867188	419.6636962890626	-1018.946411132813	321.0588684082032	316.7029724121094	-991.5728149414065	481.4199523925782	481.3672485351564	-991.6032714843752	482.2979431152345	476.5084838867189	-953.090270996094	491.552215576172	442.317352294922	-910.4635009765627	nan	nan	nan	
919	4.59	-322.5237426757813	1738.4921875	-1083.492919921875	-450.4627685546876	1618.421508789063	-1157.1181640625	-457.9895935058595	1609.669677734375	-1010.539306640625	-481.8800048828126	1476.695190429688	-1097.61083984375	-507.2221984863282	1154.015747070313	-1044.57666015625	-317.6466979980469	1433.806640625	-1082.346069335938	-329.1347961425782	1467.313842773438	-1254.901489257813	-155.6955108642578	1434.528076171875	-1345.7080078125	-130.941650390625	1467.6396484375	-1317.095458984375	-86.92839813232423	1439.301879882813	-1347.639770507813	-23.93220329284668	1455.751098632813	-1339.212768554688	-11.98759174346924	1388.1357421875	-1311.430053710938	257.6628112792969	1516.08642578125	-1204.053833007813	265.5770568847657	1524.920043945313	-1282.965698242188	353.4980773925782	1551.373779296875	-1205.5576171875	-339.9712829589844	1479.661987304688	-925.4541015625002	-184.76904296875	1456.933837890625	-814.1795654296877	-160.0298614501953	1481.896484375	-848.7371826171877	-114.9883041381836	1460.737548828125	-813.639099121094	-49.64175415039064	1470.078979492188	-822.4881591796877	-41.09147262573243	1395.092895507813	-846.2278442382815	242.7633666992188	1518.296752929688	-854.2188110351565	328.4702758789063	1527.838745117188	-935.409851074219	-316.4592590332032	971.097351074219	-1158.919921875	-333.6978149414063	994.8425292968752	-886.7324829101565	-518.2610473632814	1031.845092773438	-1025.880981445313	-521.1727905273439	1003.029174804688	-1054.908203125	-525.4537963867189	998.8806152343752	-1000.445739746094	-298.6541748046876	757.8311767578126	-1220.944580078125	-236.9013977050782	700.7220458984376	-1224.475463867188	-193.3804626464844	723.1082763671876	-1224.128540039063	-239.2519989013672	641.5614624023439	-1208.656494140625	-154.490966796875	516.5736083984376	-1185.968017578125	-127.9516372680664	508.3397521972657	-1057.694580078125	-184.8069305419922	305.7403869628907	-1083.868408203125	-239.5320739746094	267.8331604003907	-1144.6298828125	-209.5623626708985	259.2308959960938	-1111.01171875	-242.8997497558594	196.1588897705079	-1065.20751953125	-342.4223632812501	101.3384399414063	-1089.095336914063	-404.680145263672	80.32857513427736	-1027.6337890625	-190.4960632324219	55.81460189819337	-1057.233032226563	-201.7684326171876	38.41212463378907	-1104.161254882813	-308.0962219238282	122.7613143920899	-1008.620422363281	-116.4416961669922	804.4459228515627	-842.7805786132815	-51.70778656005861	822.2310791015627	-849.7816162109377	-41.56156158447266	854.0816040039065	-859.1128540039065	8.213169097900392	768.1015625000002	-870.0735473632815	61.89895248413087	733.4095458984376	-877.9973754882815	73.33638000488283	750.8366699218751	-1006.403259277344	192.1952209472657	673.0316772460939	-913.9189453125002	203.3994903564454	571.1257934570314	-886.4002075195315	234.1065979003907	596.6588134765626	-910.4766845703127	261.4483032226563	570.2786865234376	-955.5234375000002	340.9824829101563	390.7588195800782	-930.9108886718752	340.9367980957032	420.0098876953126	-1018.687927246094	321.0693664550782	317.0311889648438	-990.9644775390627	481.3525390625001	481.6859436035157	-991.2403564453127	482.1555480957032	476.3571166992189	-952.7520141601565	491.5637512207032	442.5476684570314	-910.1052246093752	nan	nan	nan	
920	4.595	-321.7221984863282	1738.566772460938	-1083.382202148438	-450.3645935058595	1619.60107421875	-1157.255249023438	-457.9268188476564	1610.645385742188	-1010.399475097656	-481.8101501464845	1477.57470703125	-1097.65283203125	-506.921112060547	1155.072509765625	-1044.583862304688	-317.4013977050782	1434.88818359375	-1082.40185546875	-328.7550354003907	1468.370483398438	-1254.8662109375	-155.5015563964844	1435.745239257813	-1345.732299804688	-130.7918548583985	1468.693359375	-1317.156982421875	-86.73111724853517	1440.512939453125	-1347.718872070313	-23.32769393920899	1456.775146484375	-1339.032470703125	-11.75245666503906	1389.12451171875	-1311.370239257813	258.1841430664063	1516.98974609375	-1204.016967773438	265.6793518066407	1525.976318359375	-1282.882690429688	354.3168945312501	1552.953002929688	-1205.439453125	-340.1233215332032	1480.780029296875	-925.511169433594	-184.6263732910157	1457.824951171875	-814.1643676757815	-159.8509368896485	1482.6591796875	-848.6745605468752	-114.7443084716797	1461.733642578125	-813.5524902343752	-49.52694702148439	1470.989501953125	-822.4525146484377	-41.08219528198243	1396.055053710938	-846.2894287109377	242.8818664550782	1519.273681640625	-854.403991699219	328.6917114257813	1528.809936523438	-935.5998535156252	-317.1247558593751	973.1838378906252	-1159.355224609375	-333.3704528808594	996.151550292969	-886.7648925781252	-517.9848022460939	1032.692016601563	-1025.692260742188	-522.3516235351564	1004.609436035156	-1054.674682617188	-526.0125732421876	999.534362792969	-1000.26416015625	-298.3989562988282	758.7158203125001	-1221.339965820313	-237.1643066406251	701.2601318359376	-1224.297729492188	-193.6509094238282	723.6304931640626	-1224.044555664063	-239.6712646484376	642.3897705078126	-1208.482666015625	-155.0212707519532	516.9816894531251	-1185.639282226563	-128.4000854492188	508.8721923828126	-1057.505859375	-185.1669311523438	305.9707336425782	-1083.890014648438	-239.843978881836	268.0081787109376	-1144.6044921875	-209.7619781494141	259.6297912597657	-1110.980224609375	-243.1485900878907	196.4333648681641	-1065.206420898438	-342.5384216308594	101.3835830688477	-1089.0341796875	-404.7087402343751	80.30531311035158	-1027.646606445313	-190.5957183837891	55.75138473510744	-1057.185546875	-201.6622924804688	38.06764221191407	-1104.15185546875	-308.1354980468751	122.7680816650391	-1008.576538085938	-116.1646728515625	805.1716308593752	-842.5721435546877	-51.2681350708008	823.2340087890627	-849.6524658203127	-41.38220596313477	854.4094238281252	-859.0606689453127	8.3822078704834	768.7078247070315	-869.9888916015627	62.10079193115236	733.9348144531251	-877.7880859375002	74.59546661376955	750.8247680664064	-1005.976806640625	192.3126525878907	673.4154663085939	-913.8057861328127	203.4560546875001	571.5491943359376	-886.0676879882815	234.2154998779297	597.1565551757814	-910.2076416015627	261.4636535644532	570.5985717773439	-955.3128051757815	340.9523315429688	391.0359191894532	-930.5613403320315	341.0114746093751	420.2508239746095	-1018.411376953125	320.9938049316407	317.3457946777344	-990.6594238281252	481.2676696777345	481.9045410156251	-990.9135742187502	482.2628784179689	477.056121826172	-952.3519287109377	491.569793701172	442.8398437500001	-909.7803344726565	nan	nan	nan	
